<svg version="1.1" id="Layer_1" xmlns="http://www.w3.org/2000/svg" xmlns:xlink="http://www.w3.org/1999/xlink" x="0px" y="0px"
	 width="100%" viewBox="50 50 915 905" enable-background="new 0 0 1024 1008" xml:space="preserve">
<path fill="#000000" opacity="1.000000" stroke="none" 
	d="
M554.999878,939.328552 
	C459.173065,939.320312 363.846222,939.339111 268.519409,939.286438 
	C240.199799,939.270752 212.399780,934.765503 186.791290,922.900513 
	C135.764252,899.258423 98.091278,862.167664 78.491982,808.421326 
	C70.425278,786.300354 66.698578,763.471069 66.715614,739.881104 
	C66.830544,580.725403 66.446770,421.568451 66.982231,262.414459 
	C67.143951,214.347382 85.200256,172.526917 117.429192,136.892258 
	C140.178848,111.738579 167.130142,92.708740 199.177902,81.174942 
	C218.611130,74.181030 238.654282,69.988464 259.295746,69.973427 
	C424.784241,69.852859 590.274109,69.563911 755.760620,70.150253 
	C804.566772,70.323181 847.439087,87.845421 883.834534,120.844765 
	C916.977173,150.894913 937.730103,187.713242 945.731812,231.708130 
	C947.341248,240.557343 948.334045,249.473465 948.331482,258.505219 
	C948.285339,423.160614 948.460571,587.816406 948.104065,752.471069 
	C948.035217,784.281433 937.789673,813.782166 921.920837,841.113342 
	C899.879028,879.076660 868.574951,906.937500 827.856995,923.634888 
	C803.943481,933.441223 778.930969,939.153259 752.986145,939.238770 
	C687.158081,939.455688 621.328735,939.321777 554.999878,939.328552 
M812.644409,892.097961 
	C845.100159,878.104370 871.096252,856.417969 889.864502,826.427612 
	C903.767334,804.211975 913.563110,780.265259 913.602539,753.714783 
	C913.848083,588.549316 913.786499,423.383301 913.667358,258.217560 
	C913.652893,238.127075 908.840027,218.863617 900.136841,200.795670 
	C884.906372,169.176987 862.114319,144.175018 831.901550,126.326691 
	C808.569519,112.543190 783.453430,104.620193 755.945068,104.839630 
	C716.114441,105.157364 676.279541,104.952202 636.446472,104.954994 
	C512.613953,104.963661 388.781433,104.973877 264.948914,104.954803 
	C253.768799,104.953079 242.506058,104.838211 231.665863,107.688690 
	C180.755859,121.075645 142.650070,150.880325 117.960480,197.513840 
	C104.643822,222.666260 101.365730,249.883423 101.377411,277.865936 
	C101.442436,433.698425 101.359444,589.531006 101.406303,745.363525 
	C101.408356,752.176147 101.566139,759.094116 102.705032,765.783630 
	C109.212868,804.008423 127.357918,836.073242 156.327896,861.526855 
	C188.890167,890.136719 226.680435,905.241150 270.761169,905.127014 
	C430.259399,904.714172 589.759460,904.854675 749.258484,905.044556 
	C771.151428,905.070618 791.889038,900.768372 812.644409,892.097961 
z"/>
<path fill="#000000" opacity="1.000000" stroke="none" 
	d="
M526.155273,206.148636 
	C536.363831,200.385712 545.732239,193.666168 556.736389,189.872818 
	C566.357849,186.556107 576.104248,184.873138 586.171631,186.907547 
	C593.357666,188.359695 598.481995,193.311142 603.450684,198.256927 
	C605.922668,200.717499 608.149719,203.449799 610.284302,206.215988 
	C612.144653,208.626816 613.766541,208.719223 616.007874,206.662933 
	C622.162842,201.016205 628.933472,196.179611 636.028442,191.767929 
	C640.333679,189.090897 644.978394,187.326538 649.833862,186.084869 
	C652.963928,185.284454 656.042175,185.577271 659.123962,186.796967 
	C663.305054,188.451721 664.665466,190.876373 662.968628,195.322876 
	C659.880432,203.415146 657.766357,211.809723 655.816345,220.258591 
	C652.960449,232.632370 651.610474,245.235397 650.628418,257.809174 
	C649.306580,274.734253 649.246704,291.754395 648.320251,308.715973 
	C648.032104,313.992126 650.047607,315.238007 654.933960,315.092682 
	C665.090027,314.790649 675.262512,315.013031 685.428040,315.060883 
	C711.499756,315.183685 731.856628,331.513702 737.626526,356.821747 
	C738.567566,360.949341 738.386414,365.107513 738.387512,369.259674 
	C738.415833,476.749054 738.254272,584.238892 738.539978,691.727539 
	C738.607727,717.217468 738.770935,742.712097 738.892700,768.204529 
	C738.965271,783.394775 734.101990,796.686401 723.239746,807.489929 
	C713.587097,817.090149 701.742065,822.133606 688.229980,822.288696 
	C661.574524,822.594849 634.909058,822.105347 608.255615,822.491638 
	C555.099060,823.262024 501.940552,823.040466 448.788177,822.724731 
	C417.140564,822.536804 385.497955,823.380615 353.860962,822.770996 
	C342.557526,822.553223 331.226044,822.950378 319.931274,821.680237 
	C298.671326,819.289429 281.932983,801.337524 278.038116,780.317566 
	C277.280640,776.229614 276.709412,772.128418 276.710815,767.924927 
	C276.754974,635.771240 276.736847,503.617584 276.771545,371.463898 
	C276.775574,356.055023 281.396240,342.407288 292.237976,331.001740 
	C303.241699,319.425781 317.096161,315.394226 332.409882,315.063019 
	C343.070709,314.832397 353.742340,314.867950 364.404541,315.051331 
	C368.531433,315.122345 369.789764,313.621704 369.896973,309.524048 
	C370.415283,289.718689 370.989258,269.865662 373.863770,250.258072 
	C376.591827,231.649353 380.361237,213.290253 391.153076,197.070343 
	C399.369507,184.721161 418.361572,182.184952 429.891754,189.797562 
	C436.449341,194.127106 442.442627,199.166733 448.461914,204.164352 
	C452.243805,207.304306 455.255585,207.481277 459.228241,204.119415 
	C466.224152,198.199203 473.917877,193.191681 482.197174,189.128235 
	C495.046844,182.821671 504.281708,184.263947 514.317505,194.366104 
	C518.183228,198.257416 521.999878,202.197525 526.155273,206.148636 
M573.500000,371.954468 
	C524.347534,371.943329 475.194611,371.806641 426.042816,371.980438 
	C405.226074,372.054016 384.412018,370.940704 363.594299,371.961487 
	C349.965881,372.629730 341.339600,380.757935 341.315826,393.831482 
	C341.217712,447.815643 341.281433,501.800110 341.301849,555.784485 
	C341.304352,562.381531 344.238281,567.585022 349.076172,571.895996 
	C355.193756,577.347229 362.743286,577.635315 370.251404,577.640320 
	C461.891907,577.701660 553.532471,577.689026 645.172974,577.693359 
	C647.338867,577.693481 649.510620,577.765259 651.669800,577.637085 
	C666.181152,576.776306 674.691528,567.955017 674.701172,553.544556 
	C674.736572,500.393127 674.699280,447.241608 674.717407,394.090149 
	C674.718323,391.391052 674.434692,388.793030 673.443970,386.261932 
	C669.810974,376.979584 662.106201,371.993317 650.477844,371.951538 
	C625.152222,371.860657 599.825989,371.944611 573.500000,371.954468 
M531.500000,316.848480 
	C556.979065,316.850647 582.458130,316.840393 607.937195,316.870636 
	C611.120605,316.874420 613.857544,316.984589 613.806274,312.366852 
	C613.567566,290.886597 614.451965,269.432556 616.100830,248.019394 
	C616.414246,243.949371 614.785400,243.005356 611.283569,243.427780 
	C601.959900,244.552444 594.880981,240.546112 588.938538,233.757965 
	C585.759766,230.126816 582.207947,226.815475 579.123230,223.111099 
	C577.081726,220.659500 575.566162,220.491699 572.937012,222.403778 
	C563.916565,228.963821 554.647766,235.162750 544.570068,240.054047 
	C538.444336,243.027252 532.058899,244.230270 525.242981,243.884293 
	C513.549561,243.290771 505.271210,237.095245 498.944702,227.947540 
	C496.242462,224.040237 494.031586,223.849716 490.608765,226.878937 
	C486.112488,230.858139 480.988190,234.011078 475.770233,236.982727 
	C453.850922,249.465790 441.386444,247.862579 423.446960,230.344864 
	C421.599396,228.540771 420.132721,226.150406 417.379517,225.500107 
	C414.644592,228.504211 413.900146,229.806885 412.397339,236.173950 
	C406.704071,260.295227 405.987793,284.919678 405.177856,309.526031 
	C404.936829,316.848846 405.022949,316.869751 412.597168,316.869446 
	C451.898102,316.867920 491.199066,316.856354 531.500000,316.848480 
M648.858093,653.454590 
	C648.830383,648.956665 648.984985,644.448486 648.731628,639.963318 
	C648.366577,633.501160 644.507690,629.252136 638.522644,629.168213 
	C624.865112,628.976562 611.200195,628.942871 597.544006,629.177979 
	C590.519531,629.298889 586.833252,633.140442 586.552490,640.169983 
	C586.286865,646.823364 586.275574,653.497253 586.443115,660.154785 
	C586.614136,666.952637 590.225464,670.414795 596.924622,671.020386 
	C608.402832,672.057983 619.900574,671.500488 631.389282,671.579956 
	C646.547058,671.684814 648.766113,669.447205 648.858093,653.454590 
M378.982452,629.133240 
	C372.197418,630.183777 369.374786,633.294495 369.292023,640.057373 
	C369.212616,646.549988 369.234711,653.044556 369.276703,659.537781 
	C369.329102,667.644470 372.241119,670.548523 380.303894,670.996277 
	C393.777985,671.744446 407.243469,671.604797 420.718750,671.028564 
	C427.854736,670.723389 431.591553,667.080627 431.693054,659.770264 
	C431.769379,654.276733 431.748169,648.781189 431.714050,643.286926 
	C431.653229,633.495972 427.495453,629.174866 417.846954,629.110535 
	C405.193695,629.026123 392.539398,629.091125 378.982452,629.133240 
M431.641510,726.008240 
	C430.611511,718.074585 427.129395,713.677917 420.010712,713.446167 
	C406.363861,713.002075 392.687988,713.050903 379.035126,713.367920 
	C372.782501,713.513062 369.325165,717.871094 369.252594,724.275452 
	C369.182739,730.440369 369.168091,736.606995 369.219299,742.772034 
	C369.292328,751.567505 372.422577,754.713135 381.356537,754.771851 
	C394.187225,754.856262 407.018890,754.841431 419.849915,754.798218 
	C428.068268,754.770508 431.337982,751.651489 431.617157,743.403992 
	C431.803101,737.911133 431.659271,732.407166 431.641510,726.008240 
M612.501099,754.947449 
	C620.816162,754.919434 629.132080,754.952881 637.446106,754.845886 
	C645.410400,754.743469 648.485229,751.679443 648.667114,743.586060 
	C648.805420,737.436035 648.818054,731.277832 648.674438,725.128174 
	C648.519531,718.495239 644.629333,713.722412 638.157227,713.379089 
	C624.376770,712.647766 610.556641,712.637939 596.773071,713.376831 
	C590.815735,713.696228 586.800781,717.326843 586.550232,722.487305 
	C586.171936,730.276855 585.828735,738.123352 586.862610,745.893066 
	C587.599121,751.428772 590.937134,754.415710 596.539429,754.713440 
	C601.516968,754.978027 606.513794,754.881775 612.501099,754.947449 
M535.614197,715.789612 
	C533.499268,714.353088 531.126343,713.374390 528.620178,713.355652 
	C515.127930,713.254456 501.629822,713.090454 488.143707,713.393188 
	C482.092712,713.528992 477.722534,718.056274 477.483643,723.974060 
	C477.195251,731.118408 476.931854,738.299011 477.955200,745.430115 
	C478.772888,751.128113 482.113281,754.588379 487.880798,754.666138 
	C502.040070,754.857056 516.204590,754.787598 530.365540,754.659912 
	C534.875977,754.619263 538.228638,752.123108 538.937683,747.704956 
	C540.340149,738.965881 539.878418,730.114746 539.231689,721.316772 
	C539.085083,719.322144 537.734375,717.640808 535.614197,715.789612 
M492.650238,629.024475 
	C483.203430,629.340515 479.001526,631.964111 478.581757,638.892395 
	C478.130432,646.341614 478.217926,653.859741 478.648956,661.314331 
	C478.964111,666.764954 482.838562,670.723694 487.820648,670.800415 
	C502.280579,671.023132 516.749146,671.054382 531.207764,670.795593 
	C536.414368,670.702454 539.647156,666.827026 539.724792,661.650452 
	C539.824402,655.000977 539.776672,648.348816 539.748230,641.697998 
	C539.709473,632.637268 536.515076,629.243958 527.531799,629.125854 
	C516.226807,628.977295 504.919006,629.043701 492.650238,629.024475 
z"/>
</svg>