<svg xmlns="http://www.w3.org/2000/svg" xml:space="preserve" viewBox="230 240 430 590"><path d="M570 809.105c-90.311.064-180.123.134-269.934.183-5.494.003-10.981-.439-16.462-.635-20.783-.745-39.846-19.371-40.875-45.29-.27-6.822-.054-13.662-.054-20.494.002-109.474.02-218.948-.007-328.422-.003-14.632 4.22-27.483 14.904-37.907 8.839-8.625 19.706-12.24 31.683-12.758 8.815-.38 17.66-.1 26.49-.109 7.74-.008 7.928-.167 8.269-7.665.93-20.44 1.54-40.908 5.676-61.049 2.39-11.638 5.593-22.983 12.217-33.043 7.629-11.587 22.654-15.122 34.773-8.243 5.248 2.978 9.739 6.986 14.416 10.73 6.735 5.39 7.022 5.419 14.022-.014 5.811-4.51 12.053-8.316 18.692-11.497 9.863-4.725 18.714-3.372 26.62 4.18.362.346.703.715 1.082 1.039 3.52 3.002 5.909 8.562 10.33 8.887 4.309.316 8.127-4.035 12.151-6.336 9.672-5.532 19.798-9.327 31.06-10.008 12.215-.738 20.348 5.938 27.615 14.438 4.625 5.41 4.555 5.362 9.981 1.064 6.271-4.966 12.612-9.857 19.99-13.147 4.01-1.788 8.15-2.947 12.606-2.302 5.944.86 8.053 4.159 6.07 9.835-7.374 21.108-10.328 42.953-11.054 65.185-.336 10.319-.79 20.635-1.09 30.955-.182 6.21.615 6.87 6.737 7.016 10.98.26 22.055-1.162 32.926.739 24.091 4.212 39.112 22.427 39.122 46.99.026 68.15-.044 136.3-.003 204.45.028 48.156.236 96.31.242 144.466.003 21.358-11.245 38.492-29.578 45.65-5.829 2.276-11.946 2.985-18.126 3.057-9.996.117-19.994.047-30.491.055M427.5 593.662l94.472.004c15.495 0 30.992.114 46.486-.032 13.592-.127 22.154-7.688 22.184-19.814.116-46.986.113-93.972.038-140.958-.015-9.537-6.82-16.807-16.325-17.662-5.798-.52-11.641-.733-17.464-.738-54.318-.053-108.635-.09-162.952.019-11.32.022-22.626.353-33.96.108-14.796-.319-29.664-1.397-44.411.687-9.295 1.314-15.205 8.18-15.221 17.584-.083 47.486-.033 94.971-.022 142.457 0 4.19 1.674 7.659 4.348 10.86 5.39 6.453 12.71 7.45 20.357 7.461 33.823.046 67.647.022 102.47.024m43.108-292.119c-12.713 2.746-23.354-.489-31.648-10.794-4.75-5.902-4.843-5.785-11.057-1.004-6.105 4.697-12.811 8.4-19.93 11.33-14.28 5.877-25.48.305-35.697-9.445-6.157-5.875-7.696-5.273-9.778 3.197-.119.484-.15.99-.265 1.475-4.816 20.393-5.422 41.194-5.967 61.996-.166 6.324.262 6.702 6.79 6.704 55.997.022 111.994.031 167.99.028 5.934 0 6.628-.656 6.59-6.61-.11-16.993.188-33.97 1.964-50.886.404-3.857-.977-5.54-5.008-5.321-6.923.376-12.63-2.415-17.362-7.363-2.418-2.529-4.876-5.021-7.257-7.585-4.85-5.22-4.83-5.184-10.653-1.251-8.823 5.959-17.408 12.373-28.712 15.529m67.9 374.17c6.649-.024 13.304.133 19.943-.122 6.264-.24 9.052-3.091 9.262-9.363.206-6.14.191-12.297-.008-18.436-.143-4.412-2.682-7.183-7.106-7.583-12.767-1.157-25.554-1.257-38.325-.02-3.945.382-6.5 2.661-6.945 6.636-.701 6.27-1.191 12.583-.546 18.887.667 6.525 2.736 8.804 9.293 9.575 4.435.52 8.956.308 14.433.425m-197.391-36.215c-2.322.076-4.645.12-6.965.235-6.095.304-8.908 2.86-9.094 8.85-.195 6.306-.053 12.624.057 18.935.08 4.567 2.536 6.94 7.089 7.365 12.61 1.175 25.215 1.16 37.826.046 4.916-.434 7.637-3.11 7.78-8.015.164-5.641.25-11.3-.001-16.935-.289-6.45-2.531-8.904-8.928-9.91-8.914-1.4-17.913-.36-27.764-.57m226.652 100.54c.001-5.654.127-11.313-.03-16.963-.167-5.941-3.317-9.477-9.213-9.603a805.305 805.305 0 0 0-34.925.03c-4.757.104-8.073 2.444-8.674 7.82-.744 6.656-.714 13.222.26 19.862.713 4.868 3.672 7.24 8.012 7.333 12.137.261 24.285.193 36.424.001 4.7-.074 7.896-2.411 8.146-8.48m-200.802-26.644c-10.663-.009-21.326-.078-31.989-.005-6.816.047-9.489 2.236-10.132 9.012-.596 6.275-.665 12.597.185 18.917.661 4.91 3.653 7.138 8.074 7.21 12.159.2 24.327.248 36.483-.033 5.516-.128 7.955-3.003 8.198-8.69.214-4.988.24-9.997.056-14.986-.267-7.288-2.684-9.9-10.875-11.425m52.334 19.016c.136 2.814-.156 5.637.562 8.434 1.41 5.486 3.69 7.647 9.417 7.717 11.473.139 22.95.065 34.425-.018 4.792-.035 7.772-2.324 8.52-7.303.845-5.636.521-11.289.344-16.923-.239-7.57-3.671-10.817-11.244-10.911-7.982-.099-15.965-.062-23.948-.047-16.925.031-18.069 1.186-18.076 19.051m.924-74.91c.028 2.66-.014 5.325.1 7.981.284 6.59 3.007 9.335 9.627 9.385 11.473.085 22.949.085 34.422-.026 5.716-.056 8.14-2.53 8.267-8.262.125-5.651.131-11.31.003-16.96-.151-6.687-2.31-8.886-8.883-9.577-8.79-.924-17.609-.595-26.417-.603-15.503-.014-17 1.515-17.12 18.062z"/></svg>